<mxfile host="app.diagrams.net" modified="2020-10-03T04:27:59.837Z" agent="5.0 (Windows NT 10.0; Win64; x64) AppleWebKit/537.36 (KHTML, like Gecko) Chrome/85.0.4183.121 Safari/537.36" etag="3mM0f3vvP4EH-YAXCjSc" version="13.7.7" type="github">
  <diagram id="m2kMXl4-NYBNvywEehxk" name="第 1 页">
    <mxGraphModel dx="2249" dy="762" grid="1" gridSize="10" guides="1" tooltips="1" connect="1" arrows="1" fold="1" page="1" pageScale="1" pageWidth="827" pageHeight="1169" math="0" shadow="0">
      <root>
        <mxCell id="0" />
        <mxCell id="1" parent="0" />
        <mxCell id="su4-a80D9Ri3Gde_DOzU-12" value="" style="group" vertex="1" connectable="0" parent="1">
          <mxGeometry x="289" y="825" width="380" height="100" as="geometry" />
        </mxCell>
        <mxCell id="su4-a80D9Ri3Gde_DOzU-10" value="" style="group;direction=west;" vertex="1" connectable="0" parent="su4-a80D9Ri3Gde_DOzU-12">
          <mxGeometry width="380" height="100" as="geometry" />
        </mxCell>
        <mxCell id="su4-a80D9Ri3Gde_DOzU-3" value="裁判系统电源管理模块" style="shape=trapezoid;perimeter=trapezoidPerimeter;whiteSpace=wrap;html=1;fixedSize=1;" vertex="1" parent="su4-a80D9Ri3Gde_DOzU-10">
          <mxGeometry width="380" height="100" as="geometry" />
        </mxCell>
        <mxCell id="su4-a80D9Ri3Gde_DOzU-5" value="云台24V" style="rounded=0;whiteSpace=wrap;html=1;" vertex="1" parent="su4-a80D9Ri3Gde_DOzU-10">
          <mxGeometry x="96" width="50" height="30" as="geometry" />
        </mxCell>
        <mxCell id="su4-a80D9Ri3Gde_DOzU-6" value="发射24V" style="rounded=0;whiteSpace=wrap;html=1;" vertex="1" parent="su4-a80D9Ri3Gde_DOzU-10">
          <mxGeometry x="156" width="50" height="30" as="geometry" />
        </mxCell>
        <mxCell id="su4-a80D9Ri3Gde_DOzU-7" value="串口3pin" style="rounded=0;whiteSpace=wrap;html=1;" vertex="1" parent="su4-a80D9Ri3Gde_DOzU-10">
          <mxGeometry x="216" width="50" height="30" as="geometry" />
        </mxCell>
        <mxCell id="su4-a80D9Ri3Gde_DOzU-8" value="航空插头4Pin" style="rounded=0;whiteSpace=wrap;html=1;" vertex="1" parent="su4-a80D9Ri3Gde_DOzU-10">
          <mxGeometry x="276" width="50" height="30" as="geometry" />
        </mxCell>
        <mxCell id="su4-a80D9Ri3Gde_DOzU-9" value="底盘24V" style="rounded=0;whiteSpace=wrap;html=1;" vertex="1" parent="su4-a80D9Ri3Gde_DOzU-10">
          <mxGeometry x="34.5" width="50" height="30" as="geometry" />
        </mxCell>
        <mxCell id="su4-a80D9Ri3Gde_DOzU-15" value="" style="rounded=0;whiteSpace=wrap;html=1;" vertex="1" parent="1">
          <mxGeometry x="-1" y="680" width="190" height="120" as="geometry" />
        </mxCell>
        <mxCell id="su4-a80D9Ri3Gde_DOzU-17" style="edgeStyle=orthogonalEdgeStyle;rounded=1;orthogonalLoop=1;jettySize=auto;html=1;exitX=0.5;exitY=0;exitDx=0;exitDy=0;strokeWidth=3;" edge="1" parent="1" source="su4-a80D9Ri3Gde_DOzU-9">
          <mxGeometry relative="1" as="geometry">
            <mxPoint x="348.5" y="825" as="sourcePoint" />
            <mxPoint x="169" y="802" as="targetPoint" />
            <Array as="points">
              <mxPoint x="349" y="805" />
              <mxPoint x="256" y="805" />
              <mxPoint x="256" y="825" />
              <mxPoint x="169" y="825" />
            </Array>
          </mxGeometry>
        </mxCell>
        <mxCell id="su4-a80D9Ri3Gde_DOzU-18" value="电源24V IN&lt;br&gt;XT60&lt;br&gt;" style="rounded=0;whiteSpace=wrap;html=1;" vertex="1" parent="1">
          <mxGeometry x="119" y="765" width="70" height="35" as="geometry" />
        </mxCell>
        <mxCell id="su4-a80D9Ri3Gde_DOzU-19" value="24V OUT&lt;br&gt;XT30" style="whiteSpace=wrap;html=1;" vertex="1" parent="1">
          <mxGeometry x="-1" y="700" width="70" height="35" as="geometry" />
        </mxCell>
        <mxCell id="su4-a80D9Ri3Gde_DOzU-20" value="CAN&lt;br&gt;JST-2PIN" style="whiteSpace=wrap;html=1;" vertex="1" parent="1">
          <mxGeometry x="-1" y="750" width="70" height="35" as="geometry" />
        </mxCell>
        <mxCell id="su4-a80D9Ri3Gde_DOzU-21" value="3508&lt;br&gt;底盘电机" style="shape=cylinder3;whiteSpace=wrap;html=1;boundedLbl=1;backgroundOutline=1;size=15;" vertex="1" parent="1">
          <mxGeometry x="-290" y="705" width="90" height="60" as="geometry" />
        </mxCell>
        <mxCell id="su4-a80D9Ri3Gde_DOzU-22" value="C620&lt;br&gt;电调" style="whiteSpace=wrap;html=1;" vertex="1" parent="1">
          <mxGeometry x="-140" y="725" width="70" height="30" as="geometry" />
        </mxCell>
        <mxCell id="su4-a80D9Ri3Gde_DOzU-27" value="" style="endArrow=classic;startArrow=classic;html=1;strokeWidth=4;endSize=3;startSize=3;entryX=0;entryY=0.5;entryDx=0;entryDy=0;" edge="1" parent="1" target="su4-a80D9Ri3Gde_DOzU-22">
          <mxGeometry width="50" height="50" relative="1" as="geometry">
            <mxPoint x="-200" y="739.5" as="sourcePoint" />
            <mxPoint x="-150" y="739.5" as="targetPoint" />
          </mxGeometry>
        </mxCell>
        <mxCell id="su4-a80D9Ri3Gde_DOzU-28" value="X2" style="text;html=1;align=center;verticalAlign=middle;resizable=0;points=[];autosize=1;" vertex="1" parent="1">
          <mxGeometry x="-130" y="705" width="30" height="20" as="geometry" />
        </mxCell>
        <mxCell id="su4-a80D9Ri3Gde_DOzU-29" value="" style="endArrow=classic;html=1;strokeWidth=4;exitX=0;exitY=0.5;exitDx=0;exitDy=0;" edge="1" parent="1" source="su4-a80D9Ri3Gde_DOzU-19">
          <mxGeometry width="50" height="50" relative="1" as="geometry">
            <mxPoint x="-30" y="725" as="sourcePoint" />
            <mxPoint x="-70" y="735" as="targetPoint" />
          </mxGeometry>
        </mxCell>
        <mxCell id="su4-a80D9Ri3Gde_DOzU-31" value="" style="endArrow=classic;startArrow=classic;html=1;strokeWidth=4;entryX=0;entryY=0.5;entryDx=0;entryDy=0;" edge="1" parent="1" target="su4-a80D9Ri3Gde_DOzU-20">
          <mxGeometry width="50" height="50" relative="1" as="geometry">
            <mxPoint x="-71" y="750" as="sourcePoint" />
            <mxPoint x="-11" y="770" as="targetPoint" />
          </mxGeometry>
        </mxCell>
        <mxCell id="su4-a80D9Ri3Gde_DOzU-38" value="" style="group" vertex="1" connectable="0" parent="1">
          <mxGeometry x="219" y="450" width="350" height="85" as="geometry" />
        </mxCell>
        <mxCell id="su4-a80D9Ri3Gde_DOzU-14" value="导电滑环" style="rounded=0;whiteSpace=wrap;html=1;" vertex="1" parent="su4-a80D9Ri3Gde_DOzU-38">
          <mxGeometry width="350" height="85" as="geometry" />
        </mxCell>
        <mxCell id="su4-a80D9Ri3Gde_DOzU-32" value="can" style="rounded=0;whiteSpace=wrap;html=1;" vertex="1" parent="su4-a80D9Ri3Gde_DOzU-38">
          <mxGeometry x="20" y="55" width="50" height="30" as="geometry" />
        </mxCell>
        <mxCell id="su4-a80D9Ri3Gde_DOzU-34" value="云台24V" style="rounded=0;whiteSpace=wrap;html=1;" vertex="1" parent="su4-a80D9Ri3Gde_DOzU-38">
          <mxGeometry x="80" y="55" width="50" height="30" as="geometry" />
        </mxCell>
        <mxCell id="su4-a80D9Ri3Gde_DOzU-35" value="发射24V" style="rounded=0;whiteSpace=wrap;html=1;" vertex="1" parent="su4-a80D9Ri3Gde_DOzU-38">
          <mxGeometry x="140" y="55" width="50" height="30" as="geometry" />
        </mxCell>
        <mxCell id="su4-a80D9Ri3Gde_DOzU-37" value="串口3Pin" style="rounded=0;whiteSpace=wrap;html=1;" vertex="1" parent="su4-a80D9Ri3Gde_DOzU-38">
          <mxGeometry x="199" y="55" width="50" height="30" as="geometry" />
        </mxCell>
        <mxCell id="su4-a80D9Ri3Gde_DOzU-53" value="can" style="rounded=0;whiteSpace=wrap;html=1;" vertex="1" parent="su4-a80D9Ri3Gde_DOzU-38">
          <mxGeometry x="20" width="50" height="30" as="geometry" />
        </mxCell>
        <mxCell id="su4-a80D9Ri3Gde_DOzU-62" value="云台24V" style="rounded=0;whiteSpace=wrap;html=1;" vertex="1" parent="su4-a80D9Ri3Gde_DOzU-38">
          <mxGeometry x="80" width="50" height="30" as="geometry" />
        </mxCell>
        <mxCell id="su4-a80D9Ri3Gde_DOzU-64" value="发射24V" style="rounded=0;whiteSpace=wrap;html=1;" vertex="1" parent="su4-a80D9Ri3Gde_DOzU-38">
          <mxGeometry x="140" width="50" height="30" as="geometry" />
        </mxCell>
        <mxCell id="su4-a80D9Ri3Gde_DOzU-65" value="串口3Pin" style="rounded=0;whiteSpace=wrap;html=1;" vertex="1" parent="su4-a80D9Ri3Gde_DOzU-38">
          <mxGeometry x="199" width="50" height="30" as="geometry" />
        </mxCell>
        <mxCell id="su4-a80D9Ri3Gde_DOzU-36" value="航空插头" style="rounded=0;whiteSpace=wrap;html=1;" vertex="1" parent="su4-a80D9Ri3Gde_DOzU-38">
          <mxGeometry x="260" width="50" height="30" as="geometry" />
        </mxCell>
        <mxCell id="su4-a80D9Ri3Gde_DOzU-78" value="航空插头" style="rounded=0;whiteSpace=wrap;html=1;" vertex="1" parent="su4-a80D9Ri3Gde_DOzU-38">
          <mxGeometry x="260" y="55" width="50" height="30" as="geometry" />
        </mxCell>
        <mxCell id="su4-a80D9Ri3Gde_DOzU-39" value="CAN" style="whiteSpace=wrap;html=1;" vertex="1" parent="1">
          <mxGeometry x="90" y="680" width="50" height="30" as="geometry" />
        </mxCell>
        <mxCell id="su4-a80D9Ri3Gde_DOzU-46" value="" style="endArrow=classic;startArrow=classic;html=1;strokeWidth=4;edgeStyle=orthogonalEdgeStyle;entryX=0.5;entryY=0;entryDx=0;entryDy=0;exitX=0;exitY=0.5;exitDx=0;exitDy=0;curved=1;" edge="1" parent="1" source="su4-a80D9Ri3Gde_DOzU-32" target="su4-a80D9Ri3Gde_DOzU-39">
          <mxGeometry width="50" height="50" relative="1" as="geometry">
            <mxPoint x="169" y="590" as="sourcePoint" />
            <mxPoint x="119" y="640" as="targetPoint" />
            <Array as="points">
              <mxPoint x="115" y="520" />
            </Array>
          </mxGeometry>
        </mxCell>
        <mxCell id="su4-a80D9Ri3Gde_DOzU-48" value="" style="endArrow=classic;startArrow=classic;html=1;strokeWidth=4;edgeStyle=elbowEdgeStyle;elbow=vertical;entryX=0.5;entryY=1;entryDx=0;entryDy=0;exitX=0.5;exitY=0;exitDx=0;exitDy=0;" edge="1" parent="1" source="su4-a80D9Ri3Gde_DOzU-5" target="su4-a80D9Ri3Gde_DOzU-34">
          <mxGeometry width="50" height="50" relative="1" as="geometry">
            <mxPoint x="400" y="820" as="sourcePoint" />
            <mxPoint x="330" y="560" as="targetPoint" />
          </mxGeometry>
        </mxCell>
        <mxCell id="su4-a80D9Ri3Gde_DOzU-50" value="" style="endArrow=classic;startArrow=classic;html=1;strokeWidth=4;edgeStyle=elbowEdgeStyle;elbow=vertical;entryX=0.5;entryY=1;entryDx=0;entryDy=0;exitX=0.5;exitY=0;exitDx=0;exitDy=0;" edge="1" parent="1">
          <mxGeometry width="50" height="50" relative="1" as="geometry">
            <mxPoint x="466" y="825" as="sourcePoint" />
            <mxPoint x="380" y="535" as="targetPoint" />
            <Array as="points">
              <mxPoint x="416" y="660" />
            </Array>
          </mxGeometry>
        </mxCell>
        <mxCell id="su4-a80D9Ri3Gde_DOzU-51" value="" style="endArrow=classic;startArrow=classic;html=1;strokeWidth=4;edgeStyle=elbowEdgeStyle;elbow=vertical;entryX=0.5;entryY=1;entryDx=0;entryDy=0;exitX=0.5;exitY=0;exitDx=0;exitDy=0;" edge="1" parent="1">
          <mxGeometry width="50" height="50" relative="1" as="geometry">
            <mxPoint x="526" y="825" as="sourcePoint" />
            <mxPoint x="440" y="535" as="targetPoint" />
            <Array as="points">
              <mxPoint x="470" y="640" />
            </Array>
          </mxGeometry>
        </mxCell>
        <mxCell id="su4-a80D9Ri3Gde_DOzU-52" value="" style="endArrow=classic;startArrow=classic;html=1;strokeWidth=4;edgeStyle=elbowEdgeStyle;elbow=vertical;entryX=0.5;entryY=1;entryDx=0;entryDy=0;exitX=0.5;exitY=0;exitDx=0;exitDy=0;" edge="1" parent="1">
          <mxGeometry width="50" height="50" relative="1" as="geometry">
            <mxPoint x="586" y="825" as="sourcePoint" />
            <mxPoint x="500" y="535" as="targetPoint" />
            <Array as="points">
              <mxPoint x="540" y="620" />
            </Array>
          </mxGeometry>
        </mxCell>
        <mxCell id="su4-a80D9Ri3Gde_DOzU-79" value="云台控制板" style="whiteSpace=wrap;html=1;" vertex="1" parent="1">
          <mxGeometry x="260" y="230" width="224" height="110" as="geometry" />
        </mxCell>
        <mxCell id="su4-a80D9Ri3Gde_DOzU-80" value="电源24V IN" style="whiteSpace=wrap;html=1;" vertex="1" parent="1">
          <mxGeometry x="120" y="345" width="70" height="35" as="geometry" />
        </mxCell>
      </root>
    </mxGraphModel>
  </diagram>
</mxfile>
